# xmcd CD database file
#
# Track frame offsets:
#	150
#	19332
#	32047
#	50787
#	61552
#	71637
#	93310
#	105590
#	129482
#	141952
#	158570
#	172095
#
# Disc length: 2459 seconds
#
# Revision: 1
# Processed by: cddbd v1.5.2PL0 Copyright (c) Steve Scherf et al.
# Submitted via: CDex 1.70beta2
#
DISCID=a209990c
DTITLE=Halie Loren and Matt Treder - Many times, many ways - a holiday collection - VICJ-61643
DYEAR=2010
DGENRE=Jazz
TTITLE0=The Christmas Song
TTITLE1=Winter Wonderland
TTITLE2=Blue Holiday
TTITLE3=Sugar Cookies
TTITLE4=Let It Snow
TTITLE5=Grown Up Christmas List
TTITLE6=Home for the Holidays
TTITLE7=Hove Yourself a Merry Little Christmas
TTITLE8=Santa Baby
TTITLE9=From the Mouths of Babes
TTITLE10=Nature Boy
TTITLE11=I'm Sending You My Heart This Christmas
EXTD=YEAR: 2010
EXTT0=
EXTT1=
EXTT2=
EXTT3=
EXTT4=
EXTT5=
EXTT6=
EXTT7=
EXTT8=
EXTT9=
EXTT10=
EXTT11=
PLAYORDER=
